{"asset":{"version":"2.0","generator":"babylon.js glTF exporter for 3ds max 2015 v1.0.5","copyright":"2017 (c) BabylonJS"},"scene":0,"scenes":[{"nodes":[0]}],"nodes":[{"children":[1],"translation":[0.0,0.0,0.0],"rotation":[0.0,0.0,0.0,1.0],"scale":[1.0,1.0,1.0],"name":"组001"},{"mesh":0,"translation":[-1.84997559,91.18714,0.047475338],"rotation":[0.477714419,-0.5213339,0.4777145,0.521333754],"scale":[0.0259199943,0.0259199943,0.0259199943],"name":"Cylinder001"}],"meshes":[{"primitives":[{"attributes":{"POSITION":1,"NORMAL":2,"TEXCOORD_0":3},"indices":0,"mode":4,"material":0}],"name":"Cylinder001"}],"accessors":[{"bufferView":0,"componentType":5123,"count":2868,"type":"SCALAR","name":"accessorIndices"},{"bufferView":1,"componentType":5126,"count":2868,"max":[97.83654,54.3751831,97.8364258],"min":[-97.83653,-6.10351563E-05,-97.8364258],"type":"VEC3","name":"accessorPositions"},{"bufferView":1,"byteOffset":34416,"componentType":5126,"count":2868,"type":"VEC3","name":"accessorNormals"},{"bufferView":2,"componentType":5126,"count":2868,"type":"VEC2","name":"accessorUVs"}],"bufferViews":[{"buffer":0,"byteLength":5736,"name":"bufferViewScalar"},{"buffer":0,"byteOffset":5736,"byteLength":68832,"byteStride":12,"name":"bufferViewFloatVec3"},{"buffer":0,"byteOffset":74568,"byteLength":22944,"byteStride":8,"name":"bufferViewFloatVec2"}],"buffers":[{"uri":"发动机.bin","byteLength":97512}],"materials":[{"pbrMetallicRoughness":{"baseColorFactor":[0.47385627,0.47385627,0.47385627,1.0],"metallicFactor":0.0,"roughnessFactor":0.9},"emissiveFactor":[0.0,0.0,0.0],"alphaMode":"OPAQUE","doubleSided":true,"name":"01 - Default"}]}