{"asset":{"version":"2.0","generator":"babylon.js glTF exporter for 3ds max 2015 v1.0.5","copyright":"2017 (c) BabylonJS"},"scene":0,"scenes":[{"nodes":[0]}],"nodes":[{"children":[1],"translation":[0.0,0.0,0.0],"rotation":[0.0,0.0,0.0,1.0],"scale":[1.0,1.0,1.0],"name":"组001"},{"children":[2,7],"translation":[-6.80343628,91.60194,0.0338420868],"rotation":[0.0,0.0,-0.0436193831,0.999048233],"scale":[0.0259199943,0.0259199943,0.0259199943],"name":"Group004"},{"children":[3,4,5,6],"translation":[71.6229858,0.1875,0.092835784],"rotation":[6.932291E-18,3.02670323E-19,0.04361939,0.999048233],"scale":[0.99999994,0.99999994,1.0],"name":"Group003"},{"mesh":0,"translation":[5.72462463,-28.5180664,53.28705],"rotation":[-0.499531746,-0.06531487,-0.0259909574,0.8634388],"scale":[1.00000012,-0.99999994,1.00000024],"name":"Cylinder005"},{"mesh":0,"translation":[5.72462463,-28.5180664,-53.28704],"rotation":[-0.8634387,0.0259909313,0.0653148,0.4995318],"scale":[1.00000024,1.00000012,1.00000036],"name":"Cylinder006"},{"mesh":0,"translation":[16.4806213,60.76953,0.3180771],"rotation":[0.0,1.2927381E-26,-0.020374706,0.9997924],"scale":[1.0,1.0,0.99999994],"name":"Cylinder004"},{"mesh":1,"translation":[2.52690125,0.361572266,0.1563654],"rotation":[0.477714419,-0.5213338,0.477714479,0.521333754],"scale":[1.02,1.01999986,1.01999986],"name":"Sphere001"},{"children":[8,9,10,11,12,13,14],"translation":[0.08862305,5.834717,-1.22836947],"rotation":[-1.50995788E-07,4.09636769E-11,-0.000271286815,1.0],"scale":[1.0,1.0,1.0],"name":"1223456"},{"mesh":2,"translation":[268.119843,-60.91748,1.48039842],"rotation":[0.0310351625,-0.7064253,0.7064254,-0.0310352743],"scale":[0.99999994,1.0,0.99999994],"name":"NONE"},{"mesh":3,"translation":[268.119843,-60.91748,1.48039842],"rotation":[0.0310351625,-0.7064253,0.7064254,-0.0310352743],"scale":[0.99999994,1.0,0.99999994],"name":"NONE (1)"},{"mesh":4,"translation":[268.121979,-60.8928223,2.53728223],"rotation":[0.0296425968,-0.706359863,0.7064852,-0.03249279],"scale":[0.9999999,0.99999994,0.99999994],"name":"NONE (2)"},{"mesh":5,"translation":[268.119843,-60.91748,1.48039842],"rotation":[0.0310351625,-0.7064253,0.7064254,-0.0310352743],"scale":[0.99999994,1.0,0.99999994],"name":"NONE (3)"},{"mesh":6,"translation":[268.119843,-60.91748,1.48039842],"rotation":[0.0310351625,-0.7064253,0.7064254,-0.0310352743],"scale":[0.99999994,1.0,0.99999994],"name":"NONE (4)"},{"mesh":7,"translation":[268.121979,-60.8928223,2.53728223],"rotation":[0.0296425968,-0.706359863,0.7064852,-0.03249279],"scale":[0.9999999,0.99999994,0.99999994],"name":"NONE (5)"},{"mesh":8,"translation":[268.121979,-60.8928223,2.53728223],"rotation":[0.0296425968,-0.706359863,0.7064852,-0.03249279],"scale":[0.9999999,0.99999994,0.99999994],"name":"NONE (6)"}],"meshes":[{"primitives":[{"attributes":{"POSITION":1,"NORMAL":2,"TEXCOORD_0":3},"indices":0,"mode":4,"material":0}],"name":"Cylinder005"},{"primitives":[{"attributes":{"POSITION":5,"NORMAL":6,"TEXCOORD_0":7},"indices":4,"mode":4,"material":0}],"name":"Sphere001"},{"primitives":[{"attributes":{"POSITION":9,"NORMAL":10},"indices":8,"mode":4,"material":0}],"name":"NONE"},{"primitives":[{"attributes":{"POSITION":12,"NORMAL":13},"indices":11,"mode":4,"material":0}],"name":"NONE"},{"primitives":[{"attributes":{"POSITION":15,"NORMAL":16},"indices":14,"mode":4,"material":0}],"name":"NONE"},{"primitives":[{"attributes":{"POSITION":18,"NORMAL":19},"indices":17,"mode":4,"material":0}],"name":"NONE"},{"primitives":[{"attributes":{"POSITION":21,"NORMAL":22},"indices":20,"mode":4,"material":0}],"name":"NONE"},{"primitives":[{"attributes":{"POSITION":24,"NORMAL":25},"indices":23,"mode":4,"material":0}],"name":"NONE"},{"primitives":[{"attributes":{"POSITION":27,"NORMAL":28},"indices":26,"mode":4,"material":0}],"name":"NONE"}],"accessors":[{"bufferView":0,"componentType":5123,"count":636,"type":"SCALAR","name":"accessorIndices"},{"bufferView":1,"componentType":5126,"count":636,"max":[53.06611,22.6169434,52.2597656],"min":[-53.06611,-0.000122070313,-52.2602539],"type":"VEC3","name":"accessorPositions"},{"bufferView":1,"byteOffset":7632,"componentType":5126,"count":636,"type":"VEC3","name":"accessorNormals"},{"bufferView":2,"componentType":5126,"count":636,"type":"VEC2","name":"accessorUVs"},{"bufferView":0,"byteOffset":1272,"componentType":5123,"count":1524,"type":"SCALAR","name":"accessorIndices"},{"bufferView":1,"byteOffset":15264,"componentType":5126,"count":1524,"max":[78.85058,72.84845,78.8505859],"min":[-78.8505859,-63.616272,-78.8505859],"type":"VEC3","name":"accessorPositions"},{"bufferView":1,"byteOffset":33552,"componentType":5126,"count":1524,"type":"VEC3","name":"accessorNormals"},{"bufferView":2,"byteOffset":5088,"componentType":5126,"count":1524,"type":"VEC2","name":"accessorUVs"},{"bufferView":0,"byteOffset":4320,"componentType":5123,"count":192,"type":"SCALAR","name":"accessorIndices"},{"bufferView":1,"byteOffset":51840,"componentType":5126,"count":192,"max":[235.628708,91.07205,4.42334],"min":[141.665878,43.6276779,-77.78906],"type":"VEC3","name":"accessorPositions"},{"bufferView":1,"byteOffset":54144,"componentType":5126,"count":192,"type":"VEC3","name":"accessorNormals"},{"bufferView":0,"byteOffset":4704,"componentType":5123,"count":189,"type":"SCALAR","name":"accessorIndices"},{"bufferView":1,"byteOffset":56448,"componentType":5126,"count":189,"max":[233.123672,-42.67321,6.614258],"min":[139.108612,-90.08722,-75.5708],"type":"VEC3","name":"accessorPositions"},{"bufferView":1,"byteOffset":58716,"componentType":5126,"count":189,"type":"VEC3","name":"accessorNormals"},{"bufferView":0,"byteOffset":5084,"componentType":5123,"count":264,"type":"SCALAR","name":"accessorIndices"},{"bufferView":1,"byteOffset":60984,"componentType":5126,"count":264,"max":[239.390427,109.599571,-146.163086],"min":[121.37925,-44.6425438,-2494.04565],"type":"VEC3","name":"accessorPositions"},{"bufferView":1,"byteOffset":64152,"componentType":5126,"count":264,"type":"VEC3","name":"accessorNormals"},{"bufferView":0,"byteOffset":5612,"componentType":5123,"count":189,"type":"SCALAR","name":"accessorIndices"},{"bufferView":1,"byteOffset":67320,"componentType":5126,"count":189,"max":[222.22081,46.8160629,-146.203613],"min":[127.834625,-47.6104126,-149.499756],"type":"VEC3","name":"accessorPositions"},{"bufferView":1,"byteOffset":69588,"componentType":5126,"count":189,"type":"VEC3","name":"accessorNormals"},{"bufferView":0,"byteOffset":5992,"componentType":5123,"count":189,"type":"SCALAR","name":"accessorIndices"},{"bufferView":1,"byteOffset":71856,"componentType":5126,"count":189,"max":[220.790253,49.70909,-146.154053],"min":[126.421326,-44.734642,-149.4497],"type":"VEC3","name":"accessorPositions"},{"bufferView":1,"byteOffset":74124,"componentType":5126,"count":189,"type":"VEC3","name":"accessorNormals"},{"bufferView":0,"byteOffset":6372,"componentType":5123,"count":222,"type":"SCALAR","name":"accessorIndices"},{"bufferView":1,"byteOffset":76392,"componentType":5126,"count":222,"max":[559.194641,2086.83521,1103.259],"min":[141.647659,43.94647,-77.4702148],"type":"VEC3","name":"accessorPositions"},{"bufferView":1,"byteOffset":79056,"componentType":5126,"count":222,"type":"VEC3","name":"accessorNormals"},{"bufferView":0,"byteOffset":6816,"componentType":5123,"count":252,"type":"SCALAR","name":"accessorIndices"},{"bufferView":1,"byteOffset":81720,"componentType":5126,"count":252,"max":[556.771851,-42.9459076,1103.84033],"min":[140.881882,-2085.3103,-75.5564],"type":"VEC3","name":"accessorPositions"},{"bufferView":1,"byteOffset":84744,"componentType":5126,"count":252,"type":"VEC3","name":"accessorNormals"},{"bufferView":3,"componentType":5126,"count":35,"max":[3.33333325],"min":[0.0],"type":"SCALAR","name":"accessorAnimationInput"},{"bufferView":4,"componentType":5126,"count":35,"type":"VEC4","name":"accessorAnimationRotations"}],"bufferViews":[{"buffer":0,"byteLength":7320,"name":"bufferViewScalar"},{"buffer":0,"byteOffset":7320,"byteLength":87768,"byteStride":12,"name":"bufferViewFloatVec3"},{"buffer":0,"byteOffset":95088,"byteLength":17280,"byteStride":8,"name":"bufferViewFloatVec2"},{"buffer":0,"byteOffset":112368,"byteLength":140,"name":"bufferViewAnimationFloatScalar"},{"buffer":0,"byteOffset":112508,"byteLength":560,"name":"bufferViewAnimationFloatVec4"}],"buffers":[{"uri":"叶片.bin","byteLength":113068}],"materials":[{"pbrMetallicRoughness":{"baseColorFactor":[0.47385627,0.47385627,0.47385627,1.0],"metallicFactor":0.0,"roughnessFactor":0.9},"emissiveFactor":[0.0,0.0,0.0],"alphaMode":"OPAQUE","doubleSided":true,"name":"01 - Default"}],"animations":[{"channels":[{"sampler":0,"target":{"node":1,"path":"rotation"}}],"samplers":[{"input":29,"interpolation":"LINEAR","output":30}]}]}