{"asset":{"version":"2.0","generator":"babylon.js glTF exporter for 3ds max 2015 v1.0.5","copyright":"2017 (c) BabylonJS"},"scene":0,"scenes":[{"nodes":[0]}],"nodes":[{"children":[1],"translation":[0.0,0.0,0.0],"rotation":[0.0,0.0,0.0,1.0],"scale":[1.0,1.0,1.0],"name":"组001"},{"children":[2,7],"translation":[-6.80343628,91.601944,0.0338420868],"rotation":[-2.247806E-08,2.107318E-10,-0.0436193869,0.999048233],"scale":[0.0259199925,0.0259199943,0.0259199943],"name":"Group004"},{"children":[3,4,5,6],"translation":[71.6228943,0.1875,0.0928356647],"rotation":[0.0,9.4789055E-17,0.0436193869,0.999048233],"scale":[0.9999999,0.9999999,0.99999994],"name":"Group003"},{"mesh":0,"translation":[5.72460938,-28.5180664,53.28705],"rotation":[-0.499531746,-0.06531487,-0.025990963,0.8634388],"scale":[1.00000012,-0.9999999,1.00000024],"name":"Cylinder005"},{"mesh":0,"translation":[5.72462463,-28.5180664,-53.28704],"rotation":[-0.8634387,0.0259909257,0.0653148,0.499531835],"scale":[1.00000024,1.00000024,1.00000036],"name":"Cylinder006"},{"mesh":0,"translation":[16.4806366,60.7697754,0.3180771],"rotation":[2.22090726E-15,-6.811386E-17,-0.0203747079,0.9997924],"scale":[1.0,1.0,0.99999994],"name":"Cylinder004"},{"mesh":1,"translation":[2.5269165,0.3618164,0.156365633],"rotation":[0.477714419,-0.5213338,0.477714479,0.521333754],"scale":[1.02,1.01999986,1.01999986],"name":"Sphere001"},{"children":[8,9,10,11,12,13,14],"translation":[0.08850098,5.834717,-1.22836947],"rotation":[-1.50995817E-07,4.09639024E-11,-0.000271284982,1.0],"scale":[0.9999999,0.9999999,0.99999994],"name":"1223456"},{"mesh":2,"translation":[268.119843,-60.91748,1.48039842],"rotation":[0.03103516,-0.706425369,0.7064254,-0.0310352743],"scale":[0.99999994,1.0,1.0],"name":"NONE"},{"mesh":3,"translation":[268.119843,-60.91748,1.48039842],"rotation":[0.03103516,-0.706425369,0.7064254,-0.0310352743],"scale":[0.99999994,1.0,1.0],"name":"NONE (1)"},{"mesh":4,"translation":[268.122,-60.8928223,2.53728223],"rotation":[0.0296425968,-0.7063598,0.7064852,-0.03249279],"scale":[0.99999994,0.99999994,1.00000012],"name":"NONE (2)"},{"mesh":5,"translation":[268.119843,-60.91748,1.48039842],"rotation":[0.03103516,-0.706425369,0.7064254,-0.0310352743],"scale":[0.99999994,1.0,1.0],"name":"NONE (3)"},{"mesh":6,"translation":[268.119843,-60.91748,1.48039842],"rotation":[0.03103516,-0.706425369,0.7064254,-0.0310352743],"scale":[0.99999994,1.0,1.0],"name":"NONE (4)"},{"mesh":7,"translation":[268.122,-60.8928223,2.53728223],"rotation":[0.0296425968,-0.7063598,0.7064852,-0.03249279],"scale":[0.99999994,0.99999994,1.00000012],"name":"NONE (5)"},{"mesh":8,"translation":[268.122,-60.8928223,2.53728223],"rotation":[0.0296425968,-0.7063598,0.7064852,-0.03249279],"scale":[0.99999994,0.99999994,1.00000012],"name":"NONE (6)"}],"meshes":[{"primitives":[{"attributes":{"POSITION":1,"NORMAL":2,"TEXCOORD_0":3},"indices":0,"mode":4,"material":0}],"name":"Cylinder005"},{"primitives":[{"attributes":{"POSITION":5,"NORMAL":6,"TEXCOORD_0":7},"indices":4,"mode":4,"material":0}],"name":"Sphere001"},{"primitives":[{"attributes":{"POSITION":9,"NORMAL":10},"indices":8,"mode":4,"material":0}],"name":"NONE"},{"primitives":[{"attributes":{"POSITION":12,"NORMAL":13},"indices":11,"mode":4,"material":0}],"name":"NONE"},{"primitives":[{"attributes":{"POSITION":15,"NORMAL":16},"indices":14,"mode":4,"material":0}],"name":"NONE"},{"primitives":[{"attributes":{"POSITION":18,"NORMAL":19},"indices":17,"mode":4,"material":0}],"name":"NONE"},{"primitives":[{"attributes":{"POSITION":21,"NORMAL":22},"indices":20,"mode":4,"material":0}],"name":"NONE"},{"primitives":[{"attributes":{"POSITION":24,"NORMAL":25},"indices":23,"mode":4,"material":0}],"name":"NONE"},{"primitives":[{"attributes":{"POSITION":27,"NORMAL":28},"indices":26,"mode":4,"material":0}],"name":"NONE"}],"accessors":[{"bufferView":0,"componentType":5123,"count":636,"type":"SCALAR","name":"accessorIndices"},{"bufferView":1,"componentType":5126,"count":636,"max":[53.06611,22.6169434,52.26001],"min":[-53.06611,-0.000122070313,-52.2602539],"type":"VEC3","name":"accessorPositions"},{"bufferView":1,"byteOffset":7632,"componentType":5126,"count":636,"type":"VEC3","name":"accessorNormals"},{"bufferView":2,"componentType":5126,"count":636,"type":"VEC2","name":"accessorUVs"},{"bufferView":0,"byteOffset":1272,"componentType":5123,"count":1524,"type":"SCALAR","name":"accessorIndices"},{"bufferView":1,"byteOffset":15264,"componentType":5126,"count":1524,"max":[78.85058,72.84848,78.8505859],"min":[-78.8505859,-63.61624,-78.85083],"type":"VEC3","name":"accessorPositions"},{"bufferView":1,"byteOffset":33552,"componentType":5126,"count":1524,"type":"VEC3","name":"accessorNormals"},{"bufferView":2,"byteOffset":5088,"componentType":5126,"count":1524,"type":"VEC2","name":"accessorUVs"},{"bufferView":0,"byteOffset":4320,"componentType":5123,"count":192,"type":"SCALAR","name":"accessorIndices"},{"bufferView":1,"byteOffset":51840,"componentType":5126,"count":192,"max":[235.628708,91.07206,4.42334],"min":[141.665878,43.6276779,-77.78906],"type":"VEC3","name":"accessorPositions"},{"bufferView":1,"byteOffset":54144,"componentType":5126,"count":192,"type":"VEC3","name":"accessorNormals"},{"bufferView":0,"byteOffset":4704,"componentType":5123,"count":189,"type":"SCALAR","name":"accessorIndices"},{"bufferView":1,"byteOffset":56448,"componentType":5126,"count":189,"max":[233.123672,-42.673214,6.614258],"min":[139.108612,-90.08721,-75.5708],"type":"VEC3","name":"accessorPositions"},{"bufferView":1,"byteOffset":58716,"componentType":5126,"count":189,"type":"VEC3","name":"accessorNormals"},{"bufferView":0,"byteOffset":5084,"componentType":5123,"count":264,"type":"SCALAR","name":"accessorIndices"},{"bufferView":1,"byteOffset":60984,"componentType":5126,"count":264,"max":[239.390472,109.599586,-146.162842],"min":[121.379265,-44.6425552,-2494.04541],"type":"VEC3","name":"accessorPositions"},{"bufferView":1,"byteOffset":64152,"componentType":5126,"count":264,"type":"VEC3","name":"accessorNormals"},{"bufferView":0,"byteOffset":5612,"componentType":5123,"count":189,"type":"SCALAR","name":"accessorIndices"},{"bufferView":1,"byteOffset":67320,"componentType":5126,"count":189,"max":[222.220825,46.8160553,-146.203613],"min":[127.834618,-47.6104164,-149.499756],"type":"VEC3","name":"accessorPositions"},{"bufferView":1,"byteOffset":69588,"componentType":5126,"count":189,"type":"VEC3","name":"accessorNormals"},{"bufferView":0,"byteOffset":5992,"componentType":5123,"count":189,"type":"SCALAR","name":"accessorIndices"},{"bufferView":1,"byteOffset":71856,"componentType":5126,"count":189,"max":[220.790268,49.7090836,-146.1543],"min":[126.421318,-44.73465,-149.4497],"type":"VEC3","name":"accessorPositions"},{"bufferView":1,"byteOffset":74124,"componentType":5126,"count":189,"type":"VEC3","name":"accessorNormals"},{"bufferView":0,"byteOffset":6372,"componentType":5123,"count":222,"type":"SCALAR","name":"accessorIndices"},{"bufferView":1,"byteOffset":76392,"componentType":5126,"count":222,"max":[559.1948,2086.83569,1103.25928],"min":[141.64769,43.946476,-77.46997],"type":"VEC3","name":"accessorPositions"},{"bufferView":1,"byteOffset":79056,"componentType":5126,"count":222,"type":"VEC3","name":"accessorNormals"},{"bufferView":0,"byteOffset":6816,"componentType":5123,"count":252,"type":"SCALAR","name":"accessorIndices"},{"bufferView":1,"byteOffset":81720,"componentType":5126,"count":252,"max":[556.7719,-42.9459152,1103.84082],"min":[140.881882,-2085.31079,-75.55615],"type":"VEC3","name":"accessorPositions"},{"bufferView":1,"byteOffset":84744,"componentType":5126,"count":252,"type":"VEC3","name":"accessorNormals"}],"bufferViews":[{"buffer":0,"byteLength":7320,"name":"bufferViewScalar"},{"buffer":0,"byteOffset":7320,"byteLength":87768,"byteStride":12,"name":"bufferViewFloatVec3"},{"buffer":0,"byteOffset":95088,"byteLength":17280,"byteStride":8,"name":"bufferViewFloatVec2"}],"buffers":[{"uri":"叶片静态.bin","byteLength":112368}],"materials":[{"pbrMetallicRoughness":{"baseColorFactor":[0.47385627,0.47385627,0.47385627,1.0],"metallicFactor":0.0,"roughnessFactor":0.9},"emissiveFactor":[0.0,0.0,0.0],"alphaMode":"OPAQUE","doubleSided":true,"name":"01 - Default"}]}