{"asset":{"version":"2.0","generator":"babylon.js glTF exporter for 3ds max 2015 v1.0.5","copyright":"2017 (c) BabylonJS"},"scene":0,"scenes":[{"nodes":[0]}],"nodes":[{"children":[1],"translation":[0.0,0.0,0.0],"rotation":[0.0,0.0,0.0,1.0],"scale":[1.0,1.0,1.0],"name":"组001"},{"mesh":0,"translation":[-0.06022644,1.41627657,0.0296110734],"rotation":[-7.54979E-08,5.20548554E-07,1.0,3.9300323E-14],"scale":[0.0259199943,0.0259199943,0.0259199943],"name":"Cone003"}],"meshes":[{"primitives":[{"attributes":{"POSITION":1,"NORMAL":2,"TEXCOORD_0":3},"indices":0,"mode":4,"material":0}],"name":"Cone003"}],"accessors":[{"bufferView":0,"componentType":5123,"count":720,"type":"SCALAR","name":"accessorIndices"},{"bufferView":1,"componentType":5126,"count":720,"max":[1299.99988,50.0,1299.99976],"min":[-1300.0,-3.81469727E-06,-1300.0],"type":"VEC3","name":"accessorPositions"},{"bufferView":1,"byteOffset":8640,"componentType":5126,"count":720,"type":"VEC3","name":"accessorNormals"},{"bufferView":2,"componentType":5126,"count":720,"type":"VEC2","name":"accessorUVs"}],"bufferViews":[{"buffer":0,"byteLength":1440,"name":"bufferViewScalar"},{"buffer":0,"byteOffset":1440,"byteLength":17280,"byteStride":12,"name":"bufferViewFloatVec3"},{"buffer":0,"byteOffset":18720,"byteLength":5760,"byteStride":8,"name":"bufferViewFloatVec2"}],"buffers":[{"uri":"基础.bin","byteLength":24480}],"materials":[{"pbrMetallicRoughness":{"baseColorFactor":[0.47385627,0.47385627,0.47385627,1.0],"metallicFactor":0.0,"roughnessFactor":0.9},"emissiveFactor":[0.0,0.0,0.0],"alphaMode":"OPAQUE","doubleSided":true,"name":"01 - Default"}]}