{"asset":{"version":"2.0","generator":"babylon.js glTF exporter for 3ds max 2015 v1.0.5","copyright":"2017 (c) BabylonJS"},"scene":0,"scenes":[{"nodes":[0]}],"nodes":[{"children":[1],"translation":[0.0,0.0,0.0],"rotation":[0.0,0.0,0.0,1.0],"scale":[1.0,1.0,1.0],"name":"组001"},{"mesh":0,"translation":[-0.06022644,89.570076,0.0296149254],"rotation":[-7.54979E-08,5.20548554E-07,1.0,3.9300323E-14],"scale":[0.0259199943,0.0259199943,0.0259199943],"name":"Cone001"}],"meshes":[{"primitives":[{"attributes":{"POSITION":1,"NORMAL":2,"TEXCOORD_0":3},"indices":0,"mode":4,"material":0}],"name":"Cone001"}],"accessors":[{"bufferView":0,"componentType":5123,"count":288,"type":"SCALAR","name":"accessorIndices"},{"bufferView":1,"componentType":5126,"count":288,"max":[90.42032,3444.88184,90.42032],"min":[-90.42032,0.0,-90.42031],"type":"VEC3","name":"accessorPositions"},{"bufferView":1,"byteOffset":3456,"componentType":5126,"count":288,"type":"VEC3","name":"accessorNormals"},{"bufferView":2,"componentType":5126,"count":288,"type":"VEC2","name":"accessorUVs"}],"bufferViews":[{"buffer":0,"byteLength":576,"name":"bufferViewScalar"},{"buffer":0,"byteOffset":576,"byteLength":6912,"byteStride":12,"name":"bufferViewFloatVec3"},{"buffer":0,"byteOffset":7488,"byteLength":2304,"byteStride":8,"name":"bufferViewFloatVec2"}],"buffers":[{"uri":"塔筒.bin","byteLength":9792}],"materials":[{"pbrMetallicRoughness":{"baseColorFactor":[0.4861112,0.4861112,0.4861112,1.0],"metallicFactor":0.0,"roughnessFactor":0.9},"emissiveFactor":[0.0,0.0,0.0],"alphaMode":"OPAQUE","name":"01 - Default"}]}