{"asset":{"version":"2.0","generator":"babylon.js glTF exporter for 3ds max 2015 v1.0.5","copyright":"2017 (c) BabylonJS"},"scene":0,"scenes":[{"nodes":[0]}],"nodes":[{"children":[1,2,3,4,5,6],"translation":[0.0,0.0,0.0],"rotation":[0.0,0.0,0.0,1.0],"scale":[1.0,1.0,1.0],"name":"组001"},{"mesh":0,"translation":[-0.06022644,89.57008,0.0296149254],"rotation":[-7.54979E-08,7.58967133E-07,1.0,5.73004236E-14],"scale":[0.0259199943,0.0259199943,0.0259199943],"name":"Cone001"},{"mesh":1,"translation":[2.35838318,90.9164,-0.00133609772],"rotation":[0.7071068,0.0,0.0,0.7071067],"scale":[0.0259199943,0.0259199943,0.0259199943],"name":"Box001"},{"mesh":2,"translation":[2.54385376,89.66542,-1.95994949],"rotation":[3.05765724E-08,-1.0,9.410331E-08,-1.13753458E-07],"scale":[0.04568804,0.045688048,0.00259199925],"name":"2830"},{"mesh":2,"translation":[1.82254076,89.66542,2.04890823],"rotation":[-3.43092643E-15,-7.54979E-08,3.057658E-08,1.0],"scale":[0.0456880368,0.0456880443,0.00259199925],"name":"2831"},{"mesh":3,"translation":[0.839813232,91.1266,-0.0107975006],"rotation":[0.5,-0.5,0.50000006,0.49999994],"scale":[0.0259199943,0.0259199943,0.0259199943],"name":"Cylinder002"},{"children":[7,8,9,10,11,12,13,14,15,16,17,18,19,20,21,22,23,24,25,26,27,28,29,30,31],"translation":[1.39726257,91.71327,0.0405230522],"rotation":[0.0,-1.0,0.0,-7.54979E-08],"scale":[0.0259199943,0.0259199943,0.0259199943],"name":"Group002"},{"mesh":4,"translation":[54.04358,-82.6860352,0.005748868],"rotation":[0.7071068,0.0,0.0,0.7071067],"scale":[0.99999994,0.99999994,0.99999994],"name":"369"},{"mesh":5,"translation":[54.04358,-82.6860352,0.005748868],"rotation":[0.7071068,0.0,0.0,0.7071067],"scale":[0.99999994,0.99999994,0.99999994],"name":"367"},{"mesh":6,"translation":[54.04358,-82.6860352,0.005748868],"rotation":[0.7071068,0.0,0.0,0.7071067],"scale":[0.99999994,0.99999994,0.99999994],"name":"370"},{"mesh":7,"translation":[54.04358,-82.6860352,0.005748868],"rotation":[0.7071068,0.0,0.0,0.7071067],"scale":[0.99999994,0.99999994,0.99999994],"name":"367 (1)"},{"mesh":8,"translation":[54.04358,-82.6860352,0.005748868],"rotation":[0.7071068,0.0,0.0,0.7071067],"scale":[0.99999994,0.99999994,0.99999994],"name":"370 (1)"},{"mesh":9,"translation":[54.04358,-82.6860352,0.005748868],"rotation":[0.7071068,0.0,0.0,0.7071067],"scale":[0.99999994,0.99999994,0.99999994],"name":"359"},{"mesh":10,"translation":[54.04358,-82.6860352,0.005748868],"rotation":[0.7071068,0.0,0.0,0.7071067],"scale":[0.99999994,0.99999994,0.99999994],"name":"357"},{"mesh":11,"translation":[54.04358,-82.6860352,0.005748868],"rotation":[0.7071068,0.0,0.0,0.7071067],"scale":[0.99999994,0.99999994,0.99999994],"name":"356"},{"mesh":12,"translation":[54.04358,-82.6860352,0.005748868],"rotation":[0.7071068,0.0,0.0,0.7071067],"scale":[0.99999994,0.99999994,0.99999994],"name":"356 (1)"},{"mesh":13,"translation":[54.04358,-82.6860352,0.005748868],"rotation":[0.7071068,0.0,0.0,0.7071067],"scale":[0.99999994,0.99999994,0.99999994],"name":"357 (1)"},{"mesh":14,"translation":[54.04358,-82.6860352,0.005748868],"rotation":[0.7071068,0.0,0.0,0.7071067],"scale":[0.99999994,0.99999994,0.99999994],"name":"561"},{"mesh":15,"translation":[54.04358,-82.6860352,0.005748868],"rotation":[0.7071068,0.0,0.0,0.7071067],"scale":[0.99999994,0.99999994,0.99999994],"name":"568"},{"mesh":16,"translation":[54.04358,-82.6860352,0.005748868],"rotation":[0.7071068,0.0,0.0,0.7071067],"scale":[0.99999994,0.99999994,0.99999994],"name":"568 (1)"},{"mesh":17,"translation":[54.04358,-82.6860352,0.005748868],"rotation":[0.7071068,0.0,0.0,0.7071067],"scale":[0.99999994,0.99999994,0.99999994],"name":"561 (1)"},{"mesh":18,"translation":[54.04358,-82.6860352,0.005748868],"rotation":[0.7071068,0.0,0.0,0.7071067],"scale":[0.99999994,0.99999994,0.99999994],"name":"360"},{"mesh":19,"translation":[54.04358,-82.6860352,0.005748868],"rotation":[0.7071068,0.0,0.0,0.7071067],"scale":[0.99999994,0.99999994,0.99999994],"name":"482"},{"mesh":20,"translation":[54.04358,-82.6860352,0.005748868],"rotation":[0.7071068,0.0,0.0,0.7071067],"scale":[0.99999994,0.99999994,0.99999994],"name":"317"},{"mesh":21,"translation":[54.04358,-82.6860352,0.005748868],"rotation":[0.7071068,0.0,0.0,0.7071067],"scale":[0.99999994,0.99999994,0.99999994],"name":"338"},{"mesh":22,"translation":[54.04358,-82.6860352,0.005748868],"rotation":[0.7071068,0.0,0.0,0.7071067],"scale":[0.99999994,0.99999994,0.99999994],"name":"482 (1)"},{"mesh":23,"translation":[54.04358,-82.6860352,0.005748868],"rotation":[0.7071068,0.0,0.0,0.7071067],"scale":[0.99999994,0.99999994,0.99999994],"name":"338 (1)"},{"mesh":24,"translation":[54.04358,-82.6860352,0.005748868],"rotation":[0.7071068,0.0,0.0,0.7071067],"scale":[0.99999994,0.99999994,0.99999994],"name":"317 (1)"},{"mesh":25,"translation":[54.04358,-82.6860352,0.005748868],"rotation":[0.7071068,0.0,0.0,0.7071067],"scale":[0.99999994,0.99999994,0.99999994],"name":"360 (1)"},{"mesh":26,"translation":[54.04358,-82.6860352,0.005748868],"rotation":[0.7071068,0.0,0.0,0.7071067],"scale":[0.99999994,0.99999994,0.99999994],"name":"_Generatoreinheit_Scheibe_L_ufer_Scheibensegment.3"},{"mesh":27,"translation":[54.04358,-82.6860352,0.005748868],"rotation":[0.7071068,0.0,0.0,0.7071067],"scale":[0.99999994,0.99999994,0.99999994],"name":"JF2500-05314303A"},{"mesh":28,"translation":[54.04358,-82.6860352,0.005748868],"rotation":[0.7071068,0.0,0.0,0.7071067],"scale":[0.99999994,0.99999994,0.99999994],"name":"MANIFOLD_SOLID_BREP #9692"}],"meshes":[{"primitives":[{"attributes":{"POSITION":1,"NORMAL":2,"TEXCOORD_0":3},"indices":0,"mode":4,"material":0}],"name":"Cone001"},{"primitives":[{"attributes":{"POSITION":5,"NORMAL":6,"TEXCOORD_0":7},"indices":4,"mode":4,"material":0}],"name":"Box001"},{"primitives":[{"attributes":{"POSITION":9,"NORMAL":10},"indices":8,"mode":4,"material":1}],"name":"2830"},{"primitives":[{"attributes":{"POSITION":12,"NORMAL":13,"TEXCOORD_0":14},"indices":11,"mode":4,"material":0}],"name":"Cylinder002"},{"primitives":[{"attributes":{"POSITION":16,"NORMAL":17},"indices":15,"mode":4,"material":0}],"name":"369"},{"primitives":[{"attributes":{"POSITION":19,"NORMAL":20},"indices":18,"mode":4,"material":0}],"name":"367"},{"primitives":[{"attributes":{"POSITION":22,"NORMAL":23},"indices":21,"mode":4,"material":0}],"name":"370"},{"primitives":[{"attributes":{"POSITION":25,"NORMAL":26},"indices":24,"mode":4,"material":0}],"name":"367"},{"primitives":[{"attributes":{"POSITION":28,"NORMAL":29},"indices":27,"mode":4,"material":0}],"name":"370"},{"primitives":[{"attributes":{"POSITION":31,"NORMAL":32},"indices":30,"mode":4,"material":0}],"name":"359"},{"primitives":[{"attributes":{"POSITION":34,"NORMAL":35},"indices":33,"mode":4,"material":0}],"name":"357"},{"primitives":[{"attributes":{"POSITION":37,"NORMAL":38},"indices":36,"mode":4,"material":0}],"name":"356"},{"primitives":[{"attributes":{"POSITION":40,"NORMAL":41},"indices":39,"mode":4,"material":0}],"name":"356"},{"primitives":[{"attributes":{"POSITION":43,"NORMAL":44},"indices":42,"mode":4,"material":0}],"name":"357"},{"primitives":[{"attributes":{"POSITION":46,"NORMAL":47},"indices":45,"mode":4,"material":0}],"name":"561"},{"primitives":[{"attributes":{"POSITION":49,"NORMAL":50},"indices":48,"mode":4,"material":0}],"name":"568"},{"primitives":[{"attributes":{"POSITION":52,"NORMAL":53},"indices":51,"mode":4,"material":0}],"name":"568"},{"primitives":[{"attributes":{"POSITION":55,"NORMAL":56},"indices":54,"mode":4,"material":0}],"name":"561"},{"primitives":[{"attributes":{"POSITION":58,"NORMAL":59},"indices":57,"mode":4,"material":0}],"name":"360"},{"primitives":[{"attributes":{"POSITION":61,"NORMAL":62},"indices":60,"mode":4,"material":0}],"name":"482"},{"primitives":[{"attributes":{"POSITION":64,"NORMAL":65},"indices":63,"mode":4,"material":0}],"name":"317"},{"primitives":[{"attributes":{"POSITION":67,"NORMAL":68},"indices":66,"mode":4,"material":0}],"name":"338"},{"primitives":[{"attributes":{"POSITION":70,"NORMAL":71},"indices":69,"mode":4,"material":0}],"name":"482"},{"primitives":[{"attributes":{"POSITION":73,"NORMAL":74},"indices":72,"mode":4,"material":0}],"name":"338"},{"primitives":[{"attributes":{"POSITION":76,"NORMAL":77},"indices":75,"mode":4,"material":0}],"name":"317"},{"primitives":[{"attributes":{"POSITION":79,"NORMAL":80},"indices":78,"mode":4,"material":0}],"name":"360"},{"primitives":[{"attributes":{"POSITION":82,"NORMAL":83},"indices":81,"mode":4,"material":0}],"name":"_Generatoreinheit_Scheibe_L_ufer_Scheibensegment.3"},{"primitives":[{"attributes":{"POSITION":85,"NORMAL":86},"indices":84,"mode":4,"material":0}],"name":"JF2500-05314303A"},{"primitives":[{"attributes":{"POSITION":88,"NORMAL":89},"indices":87,"mode":4,"material":0}],"name":"MANIFOLD_SOLID_BREP #9692"}],"accessors":[{"bufferView":0,"componentType":5123,"count":288,"type":"SCALAR","name":"accessorIndices"},{"bufferView":1,"componentType":5126,"count":288,"max":[90.42032,3444.88184,90.42031],"min":[-90.42032,0.0,-90.42033],"type":"VEC3","name":"accessorPositions"},{"bufferView":1,"byteOffset":3456,"componentType":5126,"count":288,"type":"VEC3","name":"accessorNormals"},{"bufferView":2,"componentType":5126,"count":288,"type":"VEC2","name":"accessorUVs"},{"bufferView":0,"byteOffset":576,"componentType":5123,"count":1368,"type":"SCALAR","name":"accessorIndices"},{"bufferView":1,"byteOffset":6912,"componentType":5126,"count":1368,"max":[150.104492,84.5642,72.03174],"min":[-166.090057,-81.5411453,-70.05298],"type":"VEC3","name":"accessorPositions"},{"bufferView":1,"byteOffset":23328,"componentType":5126,"count":1368,"type":"VEC3","name":"accessorNormals"},{"bufferView":2,"byteOffset":2304,"componentType":5126,"count":1368,"type":"VEC2","name":"accessorUVs"},{"bufferView":0,"byteOffset":3312,"componentType":5123,"count":522,"type":"SCALAR","name":"accessorIndices"},{"bufferView":1,"byteOffset":39744,"componentType":5126,"count":522,"max":[43.44599,49.6682129,77.6772461],"min":[-25.1816788,10.9537354,28.5823364],"type":"VEC3","name":"accessorPositions"},{"bufferView":1,"byteOffset":46008,"componentType":5126,"count":522,"type":"VEC3","name":"accessorNormals"},{"bufferView":0,"byteOffset":4356,"componentType":5123,"count":372,"type":"SCALAR","name":"accessorIndices"},{"bufferView":1,"byteOffset":52272,"componentType":5126,"count":372,"max":[50.7176056,94.127655,-57.9082031],"min":[-50.15449,-1.01330185,-79.73633],"type":"VEC3","name":"accessorPositions"},{"bufferView":1,"byteOffset":56736,"componentType":5126,"count":372,"type":"VEC3","name":"accessorNormals"},{"bufferView":2,"byteOffset":13248,"componentType":5126,"count":372,"type":"VEC2","name":"accessorUVs"},{"bufferView":0,"byteOffset":5100,"componentType":5123,"count":1464,"type":"SCALAR","name":"accessorIndices"},{"bufferView":1,"byteOffset":61200,"componentType":5126,"count":1464,"max":[-87.5835,-0.3047607,-116.537842],"min":[-88.3084641,-0.6358756,-117.197021],"type":"VEC3","name":"accessorPositions"},{"bufferView":1,"byteOffset":78768,"componentType":5126,"count":1464,"type":"VEC3","name":"accessorNormals"},{"bufferView":0,"byteOffset":8028,"componentType":5123,"count":948,"type":"SCALAR","name":"accessorIndices"},{"bufferView":1,"byteOffset":96336,"componentType":5126,"count":948,"max":[-87.55215,-0.225969911,-116.473877],"min":[-88.3393,-0.305217862,-117.2605],"type":"VEC3","name":"accessorPositions"},{"bufferView":1,"byteOffset":107712,"componentType":5126,"count":948,"type":"VEC3","name":"accessorNormals"},{"bufferView":0,"byteOffset":9924,"componentType":5123,"count":948,"type":"SCALAR","name":"accessorIndices"},{"bufferView":1,"byteOffset":119088,"componentType":5126,"count":948,"max":[-87.55215,-0.225969911,-116.473877],"min":[-88.3393,-0.305217862,-117.2605],"type":"VEC3","name":"accessorPositions"},{"bufferView":1,"byteOffset":130464,"componentType":5126,"count":948,"type":"VEC3","name":"accessorNormals"},{"bufferView":0,"byteOffset":11820,"componentType":5123,"count":948,"type":"SCALAR","name":"accessorIndices"},{"bufferView":1,"byteOffset":141840,"componentType":5126,"count":948,"max":[-87.55144,0.876391947,-116.473877],"min":[-88.3386,0.7971441,-117.2605],"type":"VEC3","name":"accessorPositions"},{"bufferView":1,"byteOffset":153216,"componentType":5126,"count":948,"type":"VEC3","name":"accessorNormals"},{"bufferView":0,"byteOffset":13716,"componentType":5123,"count":948,"type":"SCALAR","name":"accessorIndices"},{"bufferView":1,"byteOffset":164592,"componentType":5126,"count":948,"max":[-87.55144,0.876391947,-116.473877],"min":[-88.3386,0.7971441,-117.2605],"type":"VEC3","name":"accessorPositions"},{"bufferView":1,"byteOffset":175968,"componentType":5126,"count":948,"type":"VEC3","name":"accessorNormals"},{"bufferView":0,"byteOffset":15612,"componentType":5123,"count":1464,"type":"SCALAR","name":"accessorIndices"},{"bufferView":1,"byteOffset":187344,"componentType":5126,"count":1464,"max":[-77.7640839,-0.311095834,-117.211914],"min":[-78.48906,-0.6422106,-117.871338],"type":"VEC3","name":"accessorPositions"},{"bufferView":1,"byteOffset":204912,"componentType":5126,"count":1464,"type":"VEC3","name":"accessorNormals"},{"bufferView":0,"byteOffset":18540,"componentType":5123,"count":948,"type":"SCALAR","name":"accessorIndices"},{"bufferView":1,"byteOffset":222480,"componentType":5126,"count":948,"max":[-77.73275,-0.23230505,-117.147949],"min":[-78.5199,-0.311553,-117.93457],"type":"VEC3","name":"accessorPositions"},{"bufferView":1,"byteOffset":233856,"componentType":5126,"count":948,"type":"VEC3","name":"accessorNormals"},{"bufferView":0,"byteOffset":20436,"componentType":5123,"count":948,"type":"SCALAR","name":"accessorIndices"},{"bufferView":1,"byteOffset":245232,"componentType":5126,"count":948,"max":[-77.73275,-0.23230505,-117.147949],"min":[-78.5199,-0.311553,-117.93457],"type":"VEC3","name":"accessorPositions"},{"bufferView":1,"byteOffset":256608,"componentType":5126,"count":948,"type":"VEC3","name":"accessorNormals"},{"bufferView":0,"byteOffset":22332,"componentType":5123,"count":948,"type":"SCALAR","name":"accessorIndices"},{"bufferView":1,"byteOffset":267984,"componentType":5126,"count":948,"max":[-77.73204,0.870057,-117.147949],"min":[-78.51918,0.790809035,-117.93457],"type":"VEC3","name":"accessorPositions"},{"bufferView":1,"byteOffset":279360,"componentType":5126,"count":948,"type":"VEC3","name":"accessorNormals"},{"bufferView":0,"byteOffset":24228,"componentType":5123,"count":948,"type":"SCALAR","name":"accessorIndices"},{"bufferView":1,"byteOffset":290736,"componentType":5126,"count":948,"max":[-77.73204,0.870057,-117.147949],"min":[-78.51918,0.790809035,-117.93457],"type":"VEC3","name":"accessorPositions"},{"bufferView":1,"byteOffset":302112,"componentType":5126,"count":948,"type":"VEC3","name":"accessorNormals"},{"bufferView":0,"byteOffset":26124,"componentType":5123,"count":3468,"type":"SCALAR","name":"accessorIndices"},{"bufferView":1,"byteOffset":313488,"componentType":5126,"count":3468,"max":[-76.2809448,-50.6820335,-117.028076],"min":[-76.9512253,-51.5972557,-117.820068],"type":"VEC3","name":"accessorPositions"},{"bufferView":1,"byteOffset":355104,"componentType":5126,"count":3468,"type":"VEC3","name":"accessorNormals"},{"bufferView":0,"byteOffset":33060,"componentType":5123,"count":3468,"type":"SCALAR","name":"accessorIndices"},{"bufferView":1,"byteOffset":396720,"componentType":5126,"count":3468,"max":[-76.27514,-42.3340874,-117.02832],"min":[-76.9454651,-43.2497177,-117.820068],"type":"VEC3","name":"accessorPositions"},{"bufferView":1,"byteOffset":438336,"componentType":5126,"count":3468,"type":"VEC3","name":"accessorNormals"},{"bufferView":0,"byteOffset":39996,"componentType":5123,"count":3468,"type":"SCALAR","name":"accessorIndices"},{"bufferView":1,"byteOffset":479952,"componentType":5126,"count":3468,"max":[-76.219986,43.80613,-117.02832],"min":[-76.89027,42.89061,-117.820068],"type":"VEC3","name":"accessorPositions"},{"bufferView":1,"byteOffset":521568,"componentType":5126,"count":3468,"type":"VEC3","name":"accessorNormals"},{"bufferView":0,"byteOffset":46932,"componentType":5123,"count":3468,"type":"SCALAR","name":"accessorIndices"},{"bufferView":1,"byteOffset":563184,"componentType":5126,"count":3468,"max":[-76.21417,52.1538124,-117.028076],"min":[-76.88451,51.23844,-117.820068],"type":"VEC3","name":"accessorPositions"},{"bufferView":1,"byteOffset":604800,"componentType":5126,"count":3468,"type":"VEC3","name":"accessorNormals"},{"bufferView":0,"byteOffset":53868,"componentType":5123,"count":1464,"type":"SCALAR","name":"accessorIndices"},{"bufferView":1,"byteOffset":646416,"componentType":5126,"count":1464,"max":[-67.94066,-0.317433357,-117.824463],"min":[-68.66563,-0.6485485,-118.483887],"type":"VEC3","name":"accessorPositions"},{"bufferView":1,"byteOffset":663984,"componentType":5126,"count":1464,"type":"VEC3","name":"accessorNormals"},{"bufferView":0,"byteOffset":56796,"componentType":5123,"count":1500,"type":"SCALAR","name":"accessorIndices"},{"bufferView":1,"byteOffset":681552,"componentType":5126,"count":1500,"max":[-67.94067,1.45412433,-117.824463],"min":[-68.66557,-0.569808364,-118.483887],"type":"VEC3","name":"accessorPositions"},{"bufferView":1,"byteOffset":699552,"componentType":5126,"count":1500,"type":"VEC3","name":"accessorNormals"},{"bufferView":0,"byteOffset":59796,"componentType":5123,"count":948,"type":"SCALAR","name":"accessorIndices"},{"bufferView":1,"byteOffset":717552,"componentType":5126,"count":948,"max":[-67.90931,-0.238642573,-117.760742],"min":[-68.6964645,-0.317890644,-118.547119],"type":"VEC3","name":"accessorPositions"},{"bufferView":1,"byteOffset":728928,"componentType":5126,"count":948,"type":"VEC3","name":"accessorNormals"},{"bufferView":0,"byteOffset":61692,"componentType":5123,"count":948,"type":"SCALAR","name":"accessorIndices"},{"bufferView":1,"byteOffset":740304,"componentType":5126,"count":948,"max":[-67.90931,-0.238642573,-117.760742],"min":[-68.6964645,-0.317890644,-118.547119],"type":"VEC3","name":"accessorPositions"},{"bufferView":1,"byteOffset":751680,"componentType":5126,"count":948,"type":"VEC3","name":"accessorNormals"},{"bufferView":0,"byteOffset":63588,"componentType":5123,"count":1500,"type":"SCALAR","name":"accessorIndices"},{"bufferView":1,"byteOffset":763056,"componentType":5126,"count":1500,"max":[-67.93973,1.11563706,-117.824463],"min":[-68.66464,-0.9082955,-118.483887],"type":"VEC3","name":"accessorPositions"},{"bufferView":1,"byteOffset":781056,"componentType":5126,"count":1500,"type":"VEC3","name":"accessorNormals"},{"bufferView":0,"byteOffset":66588,"componentType":5123,"count":948,"type":"SCALAR","name":"accessorIndices"},{"bufferView":1,"byteOffset":799056,"componentType":5126,"count":948,"max":[-67.90861,0.8637193,-117.760742],"min":[-68.695755,0.784471333,-118.547119],"type":"VEC3","name":"accessorPositions"},{"bufferView":1,"byteOffset":810432,"componentType":5126,"count":948,"type":"VEC3","name":"accessorNormals"},{"bufferView":0,"byteOffset":68484,"componentType":5123,"count":948,"type":"SCALAR","name":"accessorIndices"},{"bufferView":1,"byteOffset":821808,"componentType":5126,"count":948,"max":[-67.90861,0.8637193,-117.760742],"min":[-68.695755,0.784471333,-118.547119],"type":"VEC3","name":"accessorPositions"},{"bufferView":1,"byteOffset":833184,"componentType":5126,"count":948,"type":"VEC3","name":"accessorNormals"},{"bufferView":0,"byteOffset":70380,"componentType":5123,"count":1464,"type":"SCALAR","name":"accessorIndices"},{"bufferView":1,"byteOffset":844560,"componentType":5126,"count":1464,"max":[-67.93968,1.19437718,-117.824463],"min":[-68.66464,0.863262236,-118.483887],"type":"VEC3","name":"accessorPositions"},{"bufferView":1,"byteOffset":862128,"componentType":5126,"count":1464,"type":"VEC3","name":"accessorNormals"},{"bufferView":0,"byteOffset":73308,"componentType":5123,"count":7506,"type":"SCALAR","name":"accessorIndices"},{"bufferView":1,"byteOffset":879696,"componentType":5126,"count":7506,"max":[79.8862152,77.07084,34.7036133],"min":[73.03933,-89.750885,-31.7414551],"type":"VEC3","name":"accessorPositions"},{"bufferView":1,"byteOffset":969768,"componentType":5126,"count":7506,"type":"VEC3","name":"accessorNormals"},{"bufferView":0,"byteOffset":88320,"componentType":5123,"count":2352,"type":"SCALAR","name":"accessorIndices"},{"bufferView":1,"byteOffset":1059840,"componentType":5126,"count":2352,"max":[-115.003807,24.6535969,3.71264648],"min":[-164.248138,-24.5907421,1.74438477],"type":"VEC3","name":"accessorPositions"},{"bufferView":1,"byteOffset":1088064,"componentType":5126,"count":2352,"type":"VEC3","name":"accessorNormals"},{"bufferView":0,"byteOffset":93024,"componentType":5123,"count":1284,"type":"SCALAR","name":"accessorIndices"},{"bufferView":1,"byteOffset":1116288,"componentType":5126,"count":1284,"max":[-124.816551,9.765336,2.05932617],"min":[-154.36441,-21.74977,0.6813965],"type":"VEC3","name":"accessorPositions"},{"bufferView":1,"byteOffset":1131696,"componentType":5126,"count":1284,"type":"VEC3","name":"accessorNormals"}],"bufferViews":[{"buffer":0,"byteLength":95592,"name":"bufferViewScalar"},{"buffer":0,"byteOffset":95592,"byteLength":1147104,"byteStride":12,"name":"bufferViewFloatVec3"},{"buffer":0,"byteOffset":1242696,"byteLength":16224,"byteStride":8,"name":"bufferViewFloatVec2"}],"buffers":[{"uri":"塔筒机舱.bin","byteLength":1258920}],"materials":[{"pbrMetallicRoughness":{"baseColorFactor":[0.47385627,0.47385627,0.47385627,1.0],"metallicFactor":0.0,"roughnessFactor":0.9},"emissiveFactor":[0.0,0.0,0.0],"alphaMode":"OPAQUE","doubleSided":true,"name":"01 - Default"},{"pbrMetallicRoughness":{"baseColorFactor":[0.123993173,0.291208923,0.778101861,1.0],"metallicFactor":0.5717406,"roughnessFactor":0.77},"emissiveFactor":[0.0,0.0,0.0],"alphaMode":"OPAQUE","name":"02 - Default"}]}