{"asset":{"version":"2.0","generator":"babylon.js glTF exporter for 3ds max 2015 v1.0.5","copyright":"2017 (c) BabylonJS"},"scene":0,"scenes":[{"nodes":[0]}],"nodes":[{"children":[1,2,3,4],"translation":[0.0,0.0,0.0],"rotation":[0.0,0.0,0.0,1.0],"scale":[1.0,1.0,1.0],"name":"组001"},{"mesh":0,"translation":[2.35838318,90.91639,-0.0013358593],"rotation":[0.7071068,0.0,0.0,0.7071067],"scale":[0.0259199943,0.0259199943,0.0259199943],"name":"Box001"},{"mesh":1,"translation":[0.839813232,91.1265945,-0.0107972622],"rotation":[0.5,-0.5,0.50000006,0.49999994],"scale":[0.0259199943,0.0259199943,0.0259199943],"name":"Cylinder002"},{"mesh":2,"translation":[2.54385376,89.66541,-1.95994949],"rotation":[3.05765759E-08,-1.0,9.410327E-08,-1.13753444E-07],"scale":[0.0456880331,0.04568804,0.00259199925],"name":"2830"},{"mesh":3,"translation":[1.69767761,89.25025,2.06209183],"rotation":[9.41032638E-08,-3.82554752E-08,-3.05765759E-08,1.0],"scale":[0.0456880331,0.04568804,0.00259199925],"name":"2831"}],"meshes":[{"primitives":[{"attributes":{"POSITION":1,"NORMAL":2,"TEXCOORD_0":3},"indices":0,"mode":4,"material":0}],"name":"Box001"},{"primitives":[{"attributes":{"POSITION":5,"NORMAL":6,"TEXCOORD_0":7},"indices":4,"mode":4,"material":0}],"name":"Cylinder002"},{"primitives":[{"attributes":{"POSITION":9,"NORMAL":10},"indices":8,"mode":4,"material":1}],"name":"2830"},{"primitives":[{"attributes":{"POSITION":12,"NORMAL":13},"indices":11,"mode":4,"material":1}],"name":"2831"}],"accessors":[{"bufferView":0,"componentType":5123,"count":1368,"type":"SCALAR","name":"accessorIndices"},{"bufferView":1,"componentType":5126,"count":1368,"max":[150.104492,84.5642,72.03198],"min":[-166.090057,-81.54114,-70.05298],"type":"VEC3","name":"accessorPositions"},{"bufferView":1,"byteOffset":16416,"componentType":5126,"count":1368,"type":"VEC3","name":"accessorNormals"},{"bufferView":2,"componentType":5126,"count":1368,"type":"VEC2","name":"accessorUVs"},{"bufferView":0,"byteOffset":2736,"componentType":5123,"count":372,"type":"SCALAR","name":"accessorIndices"},{"bufferView":1,"byteOffset":32832,"componentType":5126,"count":372,"max":[50.7176,94.127655,-57.9084473],"min":[-50.15449,-1.01330185,-79.73633],"type":"VEC3","name":"accessorPositions"},{"bufferView":1,"byteOffset":37296,"componentType":5126,"count":372,"type":"VEC3","name":"accessorNormals"},{"bufferView":2,"byteOffset":10944,"componentType":5126,"count":372,"type":"VEC2","name":"accessorUVs"},{"bufferView":0,"byteOffset":3480,"componentType":5123,"count":522,"type":"SCALAR","name":"accessorIndices"},{"bufferView":1,"byteOffset":41760,"componentType":5126,"count":522,"max":[43.44599,49.6682129,77.6772461],"min":[-25.181675,10.9536133,28.5823364],"type":"VEC3","name":"accessorPositions"},{"bufferView":1,"byteOffset":48024,"componentType":5126,"count":522,"type":"VEC3","name":"accessorNormals"},{"bufferView":0,"byteOffset":4524,"componentType":5123,"count":522,"type":"SCALAR","name":"accessorIndices"},{"bufferView":1,"byteOffset":54288,"componentType":5126,"count":522,"max":[43.446,49.6682129,77.6771851],"min":[-25.1816711,10.9536133,28.5823364],"type":"VEC3","name":"accessorPositions"},{"bufferView":1,"byteOffset":60552,"componentType":5126,"count":522,"type":"VEC3","name":"accessorNormals"}],"bufferViews":[{"buffer":0,"byteLength":5568,"name":"bufferViewScalar"},{"buffer":0,"byteOffset":5568,"byteLength":66816,"byteStride":12,"name":"bufferViewFloatVec3"},{"buffer":0,"byteOffset":72384,"byteLength":13920,"byteStride":8,"name":"bufferViewFloatVec2"}],"buffers":[{"uri":"机舱.bin","byteLength":86304}],"materials":[{"pbrMetallicRoughness":{"baseColorFactor":[0.47385627,0.47385627,0.47385627,1.0],"metallicFactor":0.0,"roughnessFactor":0.9},"emissiveFactor":[0.0,0.0,0.0],"alphaMode":"OPAQUE","doubleSided":true,"name":"01 - Default"},{"pbrMetallicRoughness":{"baseColorFactor":[0.123993173,0.291208923,0.778101861,1.0],"metallicFactor":0.5717406,"roughnessFactor":0.77},"emissiveFactor":[0.0,0.0,0.0],"alphaMode":"OPAQUE","name":"02 - Default"}]}